<?xml version="1.0" encoding="utf-8"?>
<!-- Generator: Iparigrafika Gear Generator by Abel Vincze http://geargenerator.com/ -->
<svg version="1.2" xmlns="http://www.w3.org/2000/svg" xmlns:xlink="http://www.w3.org/1999/xlink" x="0px" y="0px" width="2500px" height="2500px" viewBox="-300 -300 600 600" overflow="scroll" xml:space="preserve">
    <!-- Working around the gear generator seemingly rotating the gear by 7° -->
    <g transform="rotate(7)">
        <path id="gearpoly0" fill="#e93754" stroke="#444" stroke-width="1" stroke-miterlimit="10" d="
            M 196.25,0 203.950308,-0.000361 204.057627,-0.0034 204.241471,-0.012086 204.501631,-0.029389 204.837815,-0.058269 205.249643,-0.101678 205.736649,-0.162559 206.298281,-0.243839 206.933903,-0.348431 207.642793,-0.479232 208.424147,-0.639115 209.277073,-0.830936 210.2006,-1.057524 211.193672,-1.321682 212.255151,-1.626185 213.383817,-1.973778 214.578373,-2.367172 215.837438,-2.809044 217.159554,-3.302034 218.543185,-3.848745 219.986719,-4.451736 221.488465,-5.113525 223.046661,-5.836584 224.659469,-6.623341 226.324978,-7.476172 228.041206,-8.397403 229.806103,-9.38931 231.617546,-10.454111 233.473349,-11.59397 235.371256,-12.810994 237.308949,-14.107227 239.284045,-15.484655 241.2941,-16.945199 243.336611,-18.490716 245.409015,-20.122996 247.508692,-21.843763 248.567924,-22.737848 248.833654,-22.964915 248.900142,-23.021904 248.933395,-23.050431 248.934781,-23.053742 247.514312,-35.166252 247.512198,-35.169152 247.473247,-35.189213 247.395378,-35.229272 247.084323,-35.388697 245.846972,-36.013456 243.406142,-37.201744 241.012317,-38.310258 238.667648,-39.341278 236.374214,-40.297139 234.134021,-41.180228 231.949002,-41.992979 229.821015,-42.737875 227.751843,-43.417441 225.743192,-44.034249 223.796691,-44.590909 221.913889,-45.090072 220.096255,-45.534425 218.345181,-45.92669 216.661973,-46.269621 215.047859,-46.566004 213.503982,-46.818653 212.031403,-47.030407 210.6311,-47.204132 209.303964,-47.342713 208.050803,-47.449056 206.872339,-47.526085 205.76921,-47.576738 204.741967,-47.603968 203.791073,-47.610737 202.916908,-47.600018 202.119764,-47.574786 201.399845,-47.538026 200.75727,-47.492721 200.192072,-47.441854 199.704194,-47.388407 199.293497,-47.335357 198.959753,-47.285673 198.702648,-47.242314 198.521783,-47.20823 198.416673,-47.186357 190.925211,-45.405136 184.414677,-67.121453 191.650476,-69.755453 191.750284,-69.795014 191.920069,-69.866055 192.158622,-69.971294 192.464654,-70.113414 192.836799,-70.295059 193.273612,-70.518834 193.773574,-70.787301 194.335091,-71.102982 194.956494,-71.468348 195.636042,-71.885829 196.371924,-72.357799 197.162258,-72.886587 198.005093,-73.474465 198.898411,-74.123651 199.840127,-74.836308 200.828093,-75.61454 201.860098,-76.460389 202.933868,-77.375839 204.04707,-78.362808 205.197313,-79.423152 206.382148,-80.558658 207.599072,-81.771046 208.845529,-83.061968 210.11891,-84.433005 211.416558,-85.885664 212.735766,-87.421381 214.073783,-89.041517 215.427812,-90.747357 216.795014,-92.540107 218.172512,-94.420897 219.557387,-96.390779 220.946686,-98.450721 222.337421,-100.601612 223.72657,-102.844258 225.111084,-105.179381 225.800642,-106.381826 225.972685,-106.686083 226.015672,-106.762375 226.037162,-106.800556 226.037332,-106.804141 220.559806,-117.700348 220.556828,-117.70235 220.513365,-117.707879 220.42649,-117.71889 220.079668,-117.762314 218.703258,-117.926195 216.003209,-118.208008 213.374616,-118.430934 210.818719,-118.597852 208.336671,-118.711667 205.929544,-118.775308 203.59832,-118.791724 201.343898,-118.763882 199.167087,-118.694767 197.068612,-118.587378 195.04911,-118.444725 193.109131,-118.269828 191.249137,-118.065716 189.469502,-117.835421 187.770515,-117.58198 186.152375,-117.30843 184.615194,-117.017805 183.158998,-116.713138 181.783726,-116.397454 180.489229,-116.07377 179.275271,-115.745093 178.141532,-115.414418 177.087606,-115.084725 176.112999,-114.758974 175.217136,-114.440111 174.399357,-114.131055 173.658915,-113.834706 172.994986,-113.553936 172.406658,-113.29159 171.892943,-113.050481 171.452768,-112.833394 171.084983,-112.643076 170.788359,-112.482241 170.561589,-112.353562 170.403289,-112.259674 170.311999,-112.20317 163.881541,-107.967139 150.336222,-126.147068 156.234768,-131.097008 156.315026,-131.168319 156.450275,-131.293145 156.638447,-131.473628 156.877416,-131.711846 157.164991,-132.009818 157.498926,-132.369496 157.876915,-132.79277 158.296599,-133.281463 158.755564,-133.837328 159.251344,-134.46205 159.781423,-135.157244 160.343238,-135.924452 160.934178,-136.765143 161.551587,-137.680711 162.192768,-138.672476 162.854982,-139.741678 163.535451,-140.889483 164.231363,-142.116975 164.939867,-143.425161 165.658083,-144.814964 166.383098,-146.287228 167.111971,-147.842713 167.841736,-149.482097 168.569401,-151.205971 169.291952,-153.014846 170.006356,-154.909144 170.709561,-156.889203 171.398501,-158.955272 172.070095,-161.107517 172.721251,-163.346014 173.348869,-165.670753 173.949841,-168.081633 174.521056,-170.578469 175.059399,-173.160984 175.561758,-175.828814 175.79847,-177.194584 175.856075,-177.539335 175.870377,-177.625729 175.877512,-177.668957 175.876445,-177.672384 167.002532,-186.038045 166.999049,-186.038908 166.956316,-186.029238 166.870915,-186.009872 166.530157,-185.932057 165.180704,-185.615295 162.547102,-184.956642 160.000787,-184.267091 157.54194,-183.549775 155.170651,-182.807816 152.886925,-182.044333 150.690677,-181.262433 148.581735,-180.465212 146.55984,-179.655752 144.624648,-178.837119 142.775728,-178.012358 141.012562,-177.184497 139.334549,-176.356539 137.741005,-175.531462 136.231161,-174.712218 134.804167,-173.901728 133.459089,-173.102883 132.194915,-172.318541 131.010552,-171.551524 129.904829,-170.804617 128.876496,-170.080564 127.924227,-169.38207 127.046622,-168.711795 126.242205,-168.072355 125.509427,-167.466318 124.846669,-166.896203 124.252239,-166.364481 123.724378,-165.873566 123.261259,-165.425821 122.860988,-165.023552 122.521607,-164.669008 122.241095,-164.364378 122.017369,-164.111791 121.848285,-163.913312 121.731643,-163.770945 121.665184,-163.686625 117.071338,-157.506712 98.125,-169.957485 101.974841,-176.626329 102.025869,-176.720789 102.110268,-176.884345 102.225364,-177.118302 102.368445,-177.423886 102.536765,-177.802244 102.727544,-178.254444 102.93797,-178.781471 103.165201,-179.384232 103.40637,-180.06355 103.658583,-180.820164 103.918925,-181.65473 104.184457,-182.567822 104.452226,-183.559926 104.719258,-184.631445 104.982567,-185.782696 105.239156,-187.013908 105.486016,-188.325226 105.720131,-189.716707 105.938482,-191.188322 106.138043,-192.739955 106.31579,-194.3714 106.4687,-196.082367 106.593753,-197.872478 106.687934,-199.741266 106.748238,-201.688179 106.77167,-203.712578 106.755247,-205.813734 106.696002,-207.990836 106.590982,-210.242984 106.437258,-212.569191 106.231918,-214.968389 105.972078,-217.43942 105.654876,-219.981045 105.277481,-222.591939 104.837092,-225.270697 104.592408,-226.635061 104.528627,-226.978723 104.512518,-227.064798 104.504438,-227.10786 104.502264,-227.110715 93.302289,-231.936808 93.29872,-231.936427 93.261872,-231.912725 93.188244,-231.865318 92.894651,-231.67565 91.734918,-230.916451 89.485415,-229.396774 87.328502,-227.877918 85.263278,-226.362886 83.288761,-224.854644 81.403887,-223.356124 79.607514,-221.870217 77.898422,-220.399774 76.275314,-218.947602 74.736818,-217.516464 73.281485,-216.109074 71.907796,-214.728101 70.614159,-213.376161 69.39891,-212.055818 68.260319,-210.769583 67.196587,-209.519911 66.205848,-208.309199 65.286174,-207.139785 64.435572,-206.013949 63.65199,-204.933906 62.933313,-203.901808 62.277373,-202.919744 61.681941,-201.989733 61.144737,-201.113728 60.663428,-200.293615 60.23563,-199.531206 59.858908,-198.828243 59.530784,-198.186395 59.248732,-197.607256 59.010185,-197.092347 58.812532,-196.643109 58.653127,-196.26091 58.529283,-195.947037 58.43828,-195.702698 58.377365,-195.529022 58.343753,-195.427057 56.140604,-188.048651 34.078455,-193.268522 35.415244,-200.851908 35.430887,-200.958124 35.454256,-201.140683 35.482393,-201.399895 35.51233,-201.735987 35.541093,-202.149096 35.565705,-202.639275 35.583186,-203.206489 35.590557,-203.850616 35.584842,-204.57145 35.563067,-205.368697 35.52227,-206.241975 35.459493,-207.190818 35.371793,-208.214673 35.25624,-209.312902 35.109919,-210.484781 34.929934,-211.7295 34.71341,-213.046167 34.457492,-214.433804 34.159352,-215.891351 33.816189,-217.417662 33.42523,-219.011512 32.983733,-220.671593 32.48899,-222.396518 31.938328,-224.184816 31.329112,-226.034942 30.658746,-227.945268 29.924675,-229.914093 29.12439,-231.939636 28.255424,-234.020043 27.31536,-236.153387 26.30183,-238.337664 25.212518,-240.570803 24.045159,-242.85066 22.797545,-245.175022 21.467526,-247.541609 20.770958,-248.740005 20.593485,-249.041127 20.548907,-249.116501 20.526587,-249.154203 20.523567,-249.156142 8.348412,-249.860569 8.345188,-249.858991 8.318669,-249.824115 8.265696,-249.754385 8.054679,-249.47574 7.224548,-248.365675 5.630467,-246.168271 4.123111,-244.003305 2.700607,-241.873292 1.361016,-239.780683 0.102338,-237.727871 -1.07749,-235.717179 -2.18059,-233.750871 -3.20914,-231.83114 -4.165376,-229.960113 -5.051586,-228.139847 -5.87011,-226.372327 -6.623341,-224.659469 -7.313717,-223.003113 -7.943725,-221.405026 -8.515893,-219.8669 -9.032795,-218.39035 -9.497043,-216.976914 -9.911289,-215.628052 -10.278219,-214.345142 -10.600556,-213.129485 -10.881052,-211.982302 -11.122492,-210.904727 -11.327688,-209.897818 -11.499475,-208.962547 -11.640715,-208.099801 -11.75429,-207.310386 -11.843101,-206.59502 -11.910066,-205.954341 -11.958117,-205.388896 -11.990202,-204.899149 -12.009274,-204.48548 -12.018298,-204.148178 -12.020244,-203.88745 -12.018085,-203.703414 -12.014796,-203.596103 -11.561515,-195.909147 -34.078455,-193.268522 -35.415955,-200.851782 -35.437583,-200.956943 -35.478062,-201.136485 -35.540278,-201.389689 -35.627097,-201.71575 -35.74136,-202.113784 -35.885884,-202.582819 -36.063455,-203.121804 -36.276833,-203.729607 -36.528744,-204.405015 -36.821879,-205.146734 -37.158895,-205.953394 -37.542409,-206.823544 -37.974999,-207.755658 -38.4592,-208.748134 -38.997503,-209.799295 -39.592352,-210.90739 -40.246146,-212.070597 -40.96123,-213.28702 -41.739899,-214.554696 -42.584397,-215.87159 -43.496907,-217.235603 -44.47956,-218.644569 -45.534425,-220.096255 -46.663512,-221.588369 -47.868768,-223.118554 -49.152076,-224.684395 -50.515254,-226.283418 -51.960053,-227.913092 -53.488155,-229.570832 -55.101173,-231.253998 -56.800646,-232.9599 -58.588044,-234.685798 -60.464759,-236.428902 -62.432111,-238.186379 -64.491341,-239.955349 -65.555777,-240.843233 -65.825536,-241.065496 -65.893205,-241.121078 -65.927074,-241.148872 -65.930575,-241.149662 -77.612407,-237.647458 -77.614896,-237.644872 -77.627888,-237.60303 -77.653817,-237.519387 -77.756806,-237.185375 -78.157209,-235.858333 -78.903599,-233.24824 -79.579589,-230.698292 -80.187798,-228.210209 -80.730887,-225.785634 -81.211554,-223.426127 -81.632533,-221.133171 -81.996591,-218.908163 -82.306525,-216.752421 -82.565164,-214.667179 -82.775361,-212.653586 -82.939995,-210.712709 -83.061968,-208.845529 -83.144203,-207.052941 -83.189638,-205.335755 -83.201231,-203.694697 -83.18195,-202.130403 -83.134777,-200.643425 -83.062702,-199.234228 -82.968723,-197.90319 -82.855841,-196.650601 -82.727062,-195.476665 -82.585389,-194.3815 -82.433826,-193.365134 -82.275372,-192.427511 -82.113018,-191.568488 -81.949747,-190.787836 -81.788533,-190.085237 -81.632334,-189.460292 -81.484094,-188.912513 -81.34674,-188.441328 -81.223179,-188.046083 -81.116295,-187.726036 -81.02895,-187.480366 -80.963977,-187.308168 -80.924183,-187.208453 -77.869145,-180.140109 -98.125,-169.957485 -101.975467,-176.625967 -102.031758,-176.717389 -102.131202,-176.872259 -102.276267,-177.088913 -102.46937,-177.365617 -102.712878,-177.700566 -103.009105,-178.091885 -103.360311,-178.537632 -103.768702,-179.035801 -104.236423,-179.584318 -104.765564,-180.181048 -105.358149,-180.823794 -106.016143,-181.510298 -106.741446,-182.238244 -107.535893,-183.00526 -108.40125,-183.808918 -109.339217,-184.646736 -110.351422,-185.516182 -111.439422,-186.414673 -112.604703,-187.339578 -113.848675,-188.288219 -115.172675,-189.257875 -116.577961,-190.245783 -118.065716,-191.249137 -119.637044,-192.265094 -121.292968,-193.290776 -123.034432,-194.323268 -124.862299,-195.359624 -126.777347,-196.396866 -128.780274,-197.43199 -130.871691,-198.461965 -133.052127,-199.483734 -135.322023,-200.494221 -137.681735,-201.490329 -140.131533,-202.468943 -142.6716,-203.426933 -143.975517,-203.897213 -144.305026,-204.013808 -144.387624,-204.042894 -144.428957,-204.057428 -144.432517,-204.056973 -154.212024,-196.770556 -154.213478,-196.767275 -154.211376,-196.723513 -154.207134,-196.636046 -154.189673,-196.286952 -154.112054,-194.902995 -153.920727,-192.19503 -153.683815,-189.56766 -153.40437,-187.021608 -153.085454,-184.557504 -152.730134,-182.175896 -152.341488,-179.877238 -151.922593,-177.6619 -151.476528,-175.530161 -151.006374,-173.482215 -150.515206,-171.518165 -150.006092,-169.638029 -149.482097,-167.841736 -148.94627,-166.129128 -148.401654,-164.499962 -147.851272,-162.953907 -147.298134,-161.490546 -146.745229,-160.109378 -146.195527,-158.809817 -145.651974,-157.591193 -145.117489,-156.452752 -144.594967,-155.393659 -144.087269,-154.412994 -143.597229,-153.50976 -143.127645,-152.682878 -142.681279,-151.931189 -142.260856,-151.253457 -141.869061,-150.648369 -141.508538,-150.114536 -141.181887,-149.650493 -140.891662,-149.254702 -140.64037,-148.925553 -140.43047,-148.661364 -140.264368,-148.460384 -140.144418,-148.320792 -140.07292,-148.240701 -134.784607,-142.643515 -150.336222,-126.147068 -156.235233,-131.096454 -156.319397,-131.16311 -156.465813,-131.274628 -156.676229,-131.428601 -156.952325,-131.622573 -157.295706,-131.854037 -157.707907,-132.120441 -158.190388,-132.419187 -158.744534,-132.747635 -159.371652,-133.103102 -160.072975,-133.482868 -160.849655,-133.884175 -161.702765,-134.304231 -162.6333,-134.740208 -163.64217,-135.189251 -164.730208,-135.648472 -165.898159,-136.114961 -167.146688,-136.585778 -168.476376,-137.057966 -169.887718,-137.528542 -171.381124,-137.99451 -172.956918,-138.452854 -174.615339,-138.900547 -176.356539,-139.334549 -178.180582,-139.751811 -180.087446,-140.149278 -182.07702,-140.523887 -184.149107,-140.872575 -186.303422,-141.192279 -188.539591,-141.479937 -190.857152,-141.732489 -193.255557,-141.946885 -195.734168,-142.120083 -198.292262,-142.249049 -200.929025,-142.330765 -203.643559,-142.362227 -205.029685,-142.35818 -205.3792,-142.355044 -205.466765,-142.354126 -205.510576,-142.353647 -205.513765,-142.352001 -212.211394,-132.160221 -212.211639,-132.15664 -212.194696,-132.116236 -212.160794,-132.035495 -212.024989,-131.713427 -211.47871,-130.43948 -210.372743,-127.960262 -209.251505,-125.572371 -208.118112,-123.27544 -206.975655,-121.069016 -205.827206,-118.952563 -204.675811,-116.925456 -203.524488,-114.986989 -202.376227,-113.136373 -201.233988,-111.372735 -200.100696,-109.695122 -198.979241,-108.102499 -197.872478,-106.593753 -196.783219,-105.167691 -195.714239,-103.823046 -194.668268,-102.55847 -193.647989,-101.372545 -192.656042,-100.263777 -191.695015,-99.230598 -190.767448,-98.271372 -189.875827,-97.384392 -189.022584,-96.567883 -188.210098,-95.820003 -187.440687,-95.138844 -186.716611,-94.522436 -186.040072,-93.968746 -185.413205,-93.475679 -184.838086,-93.041084 -184.316724,-92.662751 -183.85106,-92.338414 -183.442969,-92.065755 -183.094257,-91.842403 -182.806657,-91.665937 -182.581833,-91.533888 -182.421374,-91.44374 -182.326795,-91.392933 -175.443056,-87.942008 -184.414677,-67.121453 -191.650723,-69.754774 -191.752609,-69.788624 -191.928337,-69.84334 -192.178726,-69.91606 -192.504513,-70.003904 -192.906351,-70.103966 -193.384809,-70.213323 -193.94037,-70.329034 -194.573432,-70.448145 -195.284308,-70.567687 -196.073223,-70.684684 -196.940319,-70.79615 -197.885648,-70.899092 -198.909177,-70.990515 -200.010787,-71.067423 -201.19027,-71.126819 -202.447334,-71.165712 -203.781597,-71.181114 -205.192592,-71.170045 -206.679767,-71.129534 -208.242479,-71.056626 -209.880005,-70.948375 -211.591531,-70.801856 -213.376161,-70.614159 -215.232913,-70.382398 -217.16072,-70.103708 -219.158432,-69.775251 -221.224816,-69.394215 -223.358554,-68.95782 -225.55825,-68.463315 -227.822424,-67.907984 -230.149515,-67.289148 -232.537885,-66.604165 -234.985815,-65.850434 -237.49151,-65.025395 -240.053099,-64.126535 -241.354247,-63.648649 -241.681612,-63.526161 -241.763582,-63.49535 -241.804586,-63.479915 -241.807021,-63.477278 -244.614939,-51.609413 -244.613945,-51.605964 -244.584204,-51.573792 -244.524732,-51.509515 -244.286963,-51.253318 -243.337913,-50.243038 -241.450701,-48.291599 -239.580376,-46.431201 -237.729738,-44.660435 -235.901538,-42.977818 -234.098479,-41.381795 -232.32321,-39.870738 -230.578326,-38.442951 -228.866366,-37.096669 -227.189812,-35.83006 -225.551088,-34.641228 -223.952557,-33.528212 -222.396518,-32.48899 -220.885208,-31.521479 -219.4208,-30.623538 -218.005397,-29.792969 -216.641039,-29.02752 -215.329692,-28.324884 -214.073254,-27.682704 -212.873552,-27.098573 -211.732337,-26.570037 -210.651289,-26.094596 -209.632011,-25.669705 -208.676031,-25.292779 -207.784799,-24.961193 -206.959686,-24.672285 -206.201986,-24.423355 -205.512911,-24.211671 -204.893593,-24.034471 -204.345082,-23.888961 -203.868348,-23.77232 -203.464274,-23.681705 -203.133664,-23.614246 -202.877235,-23.567054 -202.69562,-23.537223 -202.589368,-23.521828 -194.940483,-22.633397 -196.25,0 -203.950308,0.000361 -204.057627,0.0034 -204.241471,0.012086 -204.501631,0.029389 -204.837815,0.058269 -205.249643,0.101678 -205.736649,0.162559 -206.298281,0.243839 -206.933903,0.348431 -207.642793,0.479232 -208.424147,0.639115 -209.277073,0.830936 -210.2006,1.057524 -211.193672,1.321682 -212.255151,1.626185 -213.383817,1.973778 -214.578373,2.367172 -215.837438,2.809044 -217.159554,3.302034 -218.543185,3.848745 -219.986719,4.451736 -221.488465,5.113525 -223.046661,5.836584 -224.659469,6.623341 -226.324978,7.476172 -228.041206,8.397403 -229.806103,9.38931 -231.617546,10.454111 -233.473349,11.59397 -235.371256,12.810994 -237.308949,14.107227 -239.284045,15.484655 -241.2941,16.945199 -243.336611,18.490716 -245.409015,20.122996 -247.508692,21.843763 -248.567924,22.737848 -248.833654,22.964915 -248.900142,23.021904 -248.933395,23.050431 -248.934781,23.053742 -247.514312,35.166252 -247.512198,35.169152 -247.473247,35.189213 -247.395378,35.229272 -247.084323,35.388697 -245.846972,36.013456 -243.406142,37.201744 -241.012317,38.310258 -238.667648,39.341278 -236.374214,40.297139 -234.134021,41.180228 -231.949002,41.992979 -229.821015,42.737875 -227.751843,43.417441 -225.743192,44.034249 -223.796691,44.590909 -221.913889,45.090072 -220.096255,45.534425 -218.345181,45.92669 -216.661973,46.269621 -215.047859,46.566004 -213.503982,46.818653 -212.031403,47.030407 -210.6311,47.204132 -209.303964,47.342713 -208.050803,47.449056 -206.872339,47.526085 -205.76921,47.576738 -204.741967,47.603968 -203.791073,47.610737 -202.916908,47.600018 -202.119764,47.574786 -201.399845,47.538026 -200.75727,47.492721 -200.192072,47.441854 -199.704194,47.388407 -199.293497,47.335357 -198.959753,47.285673 -198.702648,47.242314 -198.521783,47.20823 -198.416673,47.186357 -190.925211,45.405136 -184.414677,67.121453 -191.650476,69.755453 -191.750284,69.795014 -191.920069,69.866055 -192.158622,69.971294 -192.464654,70.113414 -192.836799,70.295059 -193.273612,70.518834 -193.773574,70.787301 -194.335091,71.102982 -194.956494,71.468348 -195.636042,71.885829 -196.371924,72.357799 -197.162258,72.886587 -198.005093,73.474465 -198.898411,74.123651 -199.840127,74.836308 -200.828093,75.61454 -201.860098,76.460389 -202.933868,77.375839 -204.04707,78.362808 -205.197313,79.423152 -206.382148,80.558658 -207.599072,81.771046 -208.845529,83.061968 -210.11891,84.433005 -211.416558,85.885664 -212.735766,87.421381 -214.073783,89.041517 -215.427812,90.747357 -216.795014,92.540107 -218.172512,94.420897 -219.557387,96.390779 -220.946686,98.450721 -222.337421,100.601612 -223.72657,102.844258 -225.111084,105.179381 -225.800642,106.381826 -225.972685,106.686083 -226.015672,106.762375 -226.037162,106.800556 -226.037332,106.804141 -220.559806,117.700348 -220.556828,117.70235 -220.513365,117.707879 -220.42649,117.71889 -220.079668,117.762314 -218.703258,117.926195 -216.003209,118.208008 -213.374616,118.430934 -210.818719,118.597852 -208.336671,118.711667 -205.929544,118.775308 -203.59832,118.791724 -201.343898,118.763882 -199.167087,118.694767 -197.068612,118.587378 -195.04911,118.444725 -193.109131,118.269828 -191.249137,118.065716 -189.469502,117.835421 -187.770515,117.58198 -186.152375,117.30843 -184.615194,117.017805 -183.158998,116.713138 -181.783726,116.397454 -180.489229,116.07377 -179.275271,115.745093 -178.141532,115.414418 -177.087606,115.084725 -176.112999,114.758974 -175.217136,114.440111 -174.399357,114.131055 -173.658915,113.834706 -172.994986,113.553936 -172.406658,113.29159 -171.892943,113.050481 -171.452768,112.833394 -171.084983,112.643076 -170.788359,112.482241 -170.561589,112.353562 -170.403289,112.259674 -170.311999,112.20317 -163.881541,107.967139 -150.336222,126.147068 -156.234768,131.097008 -156.315026,131.168319 -156.450275,131.293145 -156.638447,131.473628 -156.877416,131.711846 -157.164991,132.009818 -157.498926,132.369496 -157.876915,132.79277 -158.296599,133.281463 -158.755564,133.837328 -159.251344,134.46205 -159.781423,135.157244 -160.343238,135.924452 -160.934178,136.765143 -161.551587,137.680711 -162.192768,138.672476 -162.854982,139.741678 -163.535451,140.889483 -164.231363,142.116975 -164.939867,143.425161 -165.658083,144.814964 -166.383098,146.287228 -167.111971,147.842713 -167.841736,149.482097 -168.569401,151.205971 -169.291952,153.014846 -170.006356,154.909144 -170.709561,156.889203 -171.398501,158.955272 -172.070095,161.107517 -172.721251,163.346014 -173.348869,165.670753 -173.949841,168.081633 -174.521056,170.578469 -175.059399,173.160984 -175.561758,175.828814 -175.79847,177.194584 -175.856075,177.539335 -175.870377,177.625729 -175.877512,177.668957 -175.876445,177.672384 -167.002532,186.038045 -166.999049,186.038908 -166.956316,186.029238 -166.870915,186.009872 -166.530157,185.932057 -165.180704,185.615295 -162.547102,184.956642 -160.000787,184.267091 -157.54194,183.549775 -155.170651,182.807816 -152.886925,182.044333 -150.690677,181.262433 -148.581735,180.465212 -146.55984,179.655752 -144.624648,178.837119 -142.775728,178.012358 -141.012562,177.184497 -139.334549,176.356539 -137.741005,175.531462 -136.231161,174.712218 -134.804167,173.901728 -133.459089,173.102883 -132.194915,172.318541 -131.010552,171.551524 -129.904829,170.804617 -128.876496,170.080564 -127.924227,169.38207 -127.046622,168.711795 -126.242205,168.072355 -125.509427,167.466318 -124.846669,166.896203 -124.252239,166.364481 -123.724378,165.873566 -123.261259,165.425821 -122.860988,165.023552 -122.521607,164.669008 -122.241095,164.364378 -122.017369,164.111791 -121.848285,163.913312 -121.731643,163.770945 -121.665184,163.686625 -117.071338,157.506712 -98.125,169.957485 -101.974841,176.626329 -102.025869,176.720789 -102.110268,176.884345 -102.225364,177.118302 -102.368445,177.423886 -102.536765,177.802244 -102.727544,178.254444 -102.93797,178.781471 -103.165201,179.384232 -103.40637,180.06355 -103.658583,180.820164 -103.918925,181.65473 -104.184457,182.567822 -104.452226,183.559926 -104.719258,184.631445 -104.982567,185.782696 -105.239156,187.013908 -105.486016,188.325226 -105.720131,189.716707 -105.938482,191.188322 -106.138043,192.739955 -106.31579,194.3714 -106.4687,196.082367 -106.593753,197.872478 -106.687934,199.741266 -106.748238,201.688179 -106.77167,203.712578 -106.755247,205.813734 -106.696002,207.990836 -106.590982,210.242984 -106.437258,212.569191 -106.231918,214.968389 -105.972078,217.43942 -105.654876,219.981045 -105.277481,222.591939 -104.837092,225.270697 -104.592408,226.635061 -104.528627,226.978723 -104.512518,227.064798 -104.504438,227.10786 -104.502264,227.110715 -93.302289,231.936808 -93.29872,231.936427 -93.261872,231.912725 -93.188244,231.865318 -92.894651,231.67565 -91.734918,230.916451 -89.485415,229.396774 -87.328502,227.877918 -85.263278,226.362886 -83.288761,224.854644 -81.403887,223.356124 -79.607514,221.870217 -77.898422,220.399774 -76.275314,218.947602 -74.736818,217.516464 -73.281485,216.109074 -71.907796,214.728101 -70.614159,213.376161 -69.39891,212.055818 -68.260319,210.769583 -67.196587,209.519911 -66.205848,208.309199 -65.286174,207.139785 -64.435572,206.013949 -63.65199,204.933906 -62.933313,203.901808 -62.277373,202.919744 -61.681941,201.989733 -61.144737,201.113728 -60.663428,200.293615 -60.23563,199.531206 -59.858908,198.828243 -59.530784,198.186395 -59.248732,197.607256 -59.010185,197.092347 -58.812532,196.643109 -58.653127,196.26091 -58.529283,195.947037 -58.43828,195.702698 -58.377365,195.529022 -58.343753,195.427057 -56.140604,188.048651 -34.078455,193.268522 -35.415244,200.851908 -35.430887,200.958124 -35.454256,201.140683 -35.482393,201.399895 -35.51233,201.735987 -35.541093,202.149096 -35.565705,202.639275 -35.583186,203.206489 -35.590557,203.850616 -35.584842,204.57145 -35.563067,205.368697 -35.52227,206.241975 -35.459493,207.190818 -35.371793,208.214673 -35.25624,209.312902 -35.109919,210.484781 -34.929934,211.7295 -34.71341,213.046167 -34.457492,214.433804 -34.159352,215.891351 -33.816189,217.417662 -33.42523,219.011512 -32.983733,220.671593 -32.48899,222.396518 -31.938328,224.184816 -31.329112,226.034942 -30.658746,227.945268 -29.924675,229.914093 -29.12439,231.939636 -28.255424,234.020043 -27.31536,236.153387 -26.30183,238.337664 -25.212518,240.570803 -24.045159,242.85066 -22.797545,245.175022 -21.467526,247.541609 -20.770958,248.740005 -20.593485,249.041127 -20.548907,249.116501 -20.526587,249.154203 -20.523567,249.156142 -8.348412,249.860569 -8.345188,249.858991 -8.318669,249.824115 -8.265696,249.754385 -8.054679,249.47574 -7.224548,248.365675 -5.630467,246.168271 -4.123111,244.003305 -2.700607,241.873292 -1.361016,239.780683 -0.102338,237.727871 1.07749,235.717179 2.18059,233.750871 3.20914,231.83114 4.165376,229.960113 5.051586,228.139847 5.87011,226.372327 6.623341,224.659469 7.313717,223.003113 7.943725,221.405026 8.515893,219.8669 9.032795,218.39035 9.497043,216.976914 9.911289,215.628052 10.278219,214.345142 10.600556,213.129485 10.881052,211.982302 11.122492,210.904727 11.327688,209.897818 11.499475,208.962547 11.640715,208.099801 11.75429,207.310386 11.843101,206.59502 11.910066,205.954341 11.958117,205.388896 11.990202,204.899149 12.009274,204.48548 12.018298,204.148178 12.020244,203.88745 12.018085,203.703414 12.014796,203.596103 11.561515,195.909147 34.078455,193.268522 35.415955,200.851782 35.437583,200.956943 35.478062,201.136485 35.540278,201.389689 35.627097,201.71575 35.74136,202.113784 35.885884,202.582819 36.063455,203.121804 36.276833,203.729607 36.528744,204.405015 36.821879,205.146734 37.158895,205.953394 37.542409,206.823544 37.974999,207.755658 38.4592,208.748134 38.997503,209.799295 39.592352,210.90739 40.246146,212.070597 40.96123,213.28702 41.739899,214.554696 42.584397,215.87159 43.496907,217.235603 44.47956,218.644569 45.534425,220.096255 46.663512,221.588369 47.868768,223.118554 49.152076,224.684395 50.515254,226.283418 51.960053,227.913092 53.488155,229.570832 55.101173,231.253998 56.800646,232.9599 58.588044,234.685798 60.464759,236.428902 62.432111,238.186379 64.491341,239.955349 65.555777,240.843233 65.825536,241.065496 65.893205,241.121078 65.927074,241.148872 65.930575,241.149662 77.612407,237.647458 77.614896,237.644872 77.627888,237.60303 77.653817,237.519387 77.756806,237.185375 78.157209,235.858333 78.903599,233.24824 79.579589,230.698292 80.187798,228.210209 80.730887,225.785634 81.211554,223.426127 81.632533,221.133171 81.996591,218.908163 82.306525,216.752421 82.565164,214.667179 82.775361,212.653586 82.939995,210.712709 83.061968,208.845529 83.144203,207.052941 83.189638,205.335755 83.201231,203.694697 83.18195,202.130403 83.134777,200.643425 83.062702,199.234228 82.968723,197.90319 82.855841,196.650601 82.727062,195.476665 82.585389,194.3815 82.433826,193.365134 82.275372,192.427511 82.113018,191.568488 81.949747,190.787836 81.788533,190.085237 81.632334,189.460292 81.484094,188.912513 81.34674,188.441328 81.223179,188.046083 81.116295,187.726036 81.02895,187.480366 80.963977,187.308168 80.924183,187.208453 77.869145,180.140109 98.125,169.957485 101.975467,176.625967 102.031758,176.717389 102.131202,176.872259 102.276267,177.088913 102.46937,177.365617 102.712878,177.700566 103.009105,178.091885 103.360311,178.537632 103.768702,179.035801 104.236423,179.584318 104.765564,180.181048 105.358149,180.823794 106.016143,181.510298 106.741446,182.238244 107.535893,183.00526 108.40125,183.808918 109.339217,184.646736 110.351422,185.516182 111.439422,186.414673 112.604703,187.339578 113.848675,188.288219 115.172675,189.257875 116.577961,190.245783 118.065716,191.249137 119.637044,192.265094 121.292968,193.290776 123.034432,194.323268 124.862299,195.359624 126.777347,196.396866 128.780274,197.43199 130.871691,198.461965 133.052127,199.483734 135.322023,200.494221 137.681735,201.490329 140.131533,202.468943 142.6716,203.426933 143.975517,203.897213 144.305026,204.013808 144.387624,204.042894 144.428957,204.057428 144.432517,204.056973 154.212024,196.770556 154.213478,196.767275 154.211376,196.723513 154.207134,196.636046 154.189673,196.286952 154.112054,194.902995 153.920727,192.19503 153.683815,189.56766 153.40437,187.021608 153.085454,184.557504 152.730134,182.175896 152.341488,179.877238 151.922593,177.6619 151.476528,175.530161 151.006374,173.482215 150.515206,171.518165 150.006092,169.638029 149.482097,167.841736 148.94627,166.129128 148.401654,164.499962 147.851272,162.953907 147.298134,161.490546 146.745229,160.109378 146.195527,158.809817 145.651974,157.591193 145.117489,156.452752 144.594967,155.393659 144.087269,154.412994 143.597229,153.50976 143.127645,152.682878 142.681279,151.931189 142.260856,151.253457 141.869061,150.648369 141.508538,150.114536 141.181887,149.650493 140.891662,149.254702 140.64037,148.925553 140.43047,148.661364 140.264368,148.460384 140.144418,148.320792 140.07292,148.240701 134.784607,142.643515 150.336222,126.147068 156.235233,131.096454 156.319397,131.16311 156.465813,131.274628 156.676229,131.428601 156.952325,131.622573 157.295706,131.854037 157.707907,132.120441 158.190388,132.419187 158.744534,132.747635 159.371652,133.103102 160.072975,133.482868 160.849655,133.884175 161.702765,134.304231 162.6333,134.740208 163.64217,135.189251 164.730208,135.648472 165.898159,136.114961 167.146688,136.585778 168.476376,137.057966 169.887718,137.528542 171.381124,137.99451 172.956918,138.452854 174.615339,138.900547 176.356539,139.334549 178.180582,139.751811 180.087446,140.149278 182.07702,140.523887 184.149107,140.872575 186.303422,141.192279 188.539591,141.479937 190.857152,141.732489 193.255557,141.946885 195.734168,142.120083 198.292262,142.249049 200.929025,142.330765 203.643559,142.362227 205.029685,142.35818 205.3792,142.355044 205.466765,142.354126 205.510576,142.353647 205.513765,142.352001 212.211394,132.160221 212.211639,132.15664 212.194696,132.116236 212.160794,132.035495 212.024989,131.713427 211.47871,130.43948 210.372743,127.960262 209.251505,125.572371 208.118112,123.27544 206.975655,121.069016 205.827206,118.952563 204.675811,116.925456 203.524488,114.986989 202.376227,113.136373 201.233988,111.372735 200.100696,109.695122 198.979241,108.102499 197.872478,106.593753 196.783219,105.167691 195.714239,103.823046 194.668268,102.55847 193.647989,101.372545 192.656042,100.263777 191.695015,99.230598 190.767448,98.271372 189.875827,97.384392 189.022584,96.567883 188.210098,95.820003 187.440687,95.138844 186.716611,94.522436 186.040072,93.968746 185.413205,93.475679 184.838086,93.041084 184.316724,92.662751 183.85106,92.338414 183.442969,92.065755 183.094257,91.842403 182.806657,91.665937 182.581833,91.533888 182.421374,91.44374 182.326795,91.392933 175.443056,87.942008 184.414677,67.121453 191.650723,69.754774 191.752609,69.788624 191.928337,69.84334 192.178726,69.91606 192.504513,70.003904 192.906351,70.103966 193.384809,70.213323 193.94037,70.329034 194.573432,70.448145 195.284308,70.567687 196.073223,70.684684 196.940319,70.79615 197.885648,70.899092 198.909177,70.990515 200.010787,71.067423 201.19027,71.126819 202.447334,71.165712 203.781597,71.181114 205.192592,71.170045 206.679767,71.129534 208.242479,71.056626 209.880005,70.948375 211.591531,70.801856 213.376161,70.614159 215.232913,70.382398 217.16072,70.103708 219.158432,69.775251 221.224816,69.394215 223.358554,68.95782 225.55825,68.463315 227.822424,67.907984 230.149515,67.289148 232.537885,66.604165 234.985815,65.850434 237.49151,65.025395 240.053099,64.126535 241.354247,63.648649 241.681612,63.526161 241.763582,63.49535 241.804586,63.479915 241.807021,63.477278 244.614939,51.609413 244.613945,51.605964 244.584204,51.573792 244.524732,51.509515 244.286963,51.253318 243.337913,50.243038 241.450701,48.291599 239.580376,46.431201 237.729738,44.660435 235.901538,42.977818 234.098479,41.381795 232.32321,39.870738 230.578326,38.442951 228.866366,37.096669 227.189812,35.83006 225.551088,34.641228 223.952557,33.528212 222.396518,32.48899 220.885208,31.521479 219.4208,30.623538 218.005397,29.792969 216.641039,29.02752 215.329692,28.324884 214.073254,27.682704 212.873552,27.098573 211.732337,26.570037 210.651289,26.094596 209.632011,25.669705 208.676031,25.292779 207.784799,24.961193 206.959686,24.672285 206.201986,24.423355 205.512911,24.211671 204.893593,24.034471 204.345082,23.888961 203.868348,23.77232 203.464274,23.681705 203.133664,23.614246 202.877235,23.567054 202.69562,23.537223 202.589368,23.521828 194.940483,22.633397
            z

            M 160,0
            A 160,160 0 0 1 0,160
            A 160,160 0 0 1 -160,0
            A 160,160 0 0 1 0,-160
            A 160,160 0 0 1 160,0
        "/>
    </g>
</svg>